<svg width="580" height="400" xmlns="http://www.w3.org/2000/svg">
 <!-- Created with Method Draw - http://github.com/duopixel/Method-Draw/ -->
 <g>
  <title>background</title>
   
  <g display="none" overflow="visible" y="0" x="0" height="100%" width="100%" id="canvasGrid">
   <rect fill="url(#gridpattern)" stroke-width="0" y="0" x="0" height="100%" width="100%"/>
  </g>
 </g>
 <g>
  <title>Layer 1</title>
  <path id="svg_1" d="m280.073773,42.117506c-2.596695,0 -4.906948,1.261204 -6.856205,3.548921c-1.947608,2.285835 -3.558564,5.561254 -4.899097,9.65189c-2.680691,8.180139 -4.329687,19.671375 -5.231679,33.433197c-0.900219,13.735344 -1.051927,29.728883 -0.677926,46.849648c-32.075558,15.569135 -97.130765,47.715221 -102.356716,54.892764c-6.957752,9.556083 -4.709716,20.507889 -1.905922,27.778146l106.948808,-25.754938c2.260658,33.563088 5.474985,66.805557 8.276014,92.85358c-10.458945,3.621697 -29.982402,10.77288 -34.012285,15.20743c-5.551505,6.108958 -5.551464,25.837693 -5.551464,25.837693l43.772149,-4.212242c1.03093,8.504066 1.675654,13.466137 1.675654,13.466137l0.063965,0.44777l0.345378,0l0.80584,0l0.34537,0l0.063965,-0.44777c0,0 0.6435,-4.962159 1.675645,-13.466137l43.784946,4.212242c0,0 0.00005,-19.728735 -5.551472,-25.837693c-4.03139,-4.436264 -23.569101,-11.603661 -34.025082,-15.224117c2.795243,-25.968085 6.0039,-59.083354 8.263235,-92.538311l105.695294,25.456346c2.80376,-7.270257 5.064651,-18.222063 -1.893118,-27.778146c-5.161303,-7.08871 -68.644526,-38.519819 -101.115957,-54.295797c0.387971,-17.342669 0.245363,-33.554163 -0.665155,-47.446615l0,-0.033167c-0.90245,-13.746643 -2.553202,-25.226689 -5.231654,-33.40003c-1.34015,-4.089503 -2.937993,-7.365256 -4.886301,-9.65189c-1.949274,-2.287717 -4.259502,-3.548921 -6.85618,-3.548921l-0.00005,0.00001z" stroke-width="1.5" stroke="#000" fill="#000"/>
  <ellipse stroke="#000" id="svg_2" cy="129.5" cx="288.5" stroke-opacity="null" stroke-width="1.5" fill="#529D94"/>
 </g>
</svg>